# 3ds Max Wavefront OBJ Exporter v0.99 - (c)2007 guruware
# File Created: 26.08.2022 02:22:30

mtllib mod_miniTree002_01.mtl

#
# object miniTree002
#

v  -2.280771 -0.184507 2.280771
v  0.000000 -0.184507 3.113470
v  -0.000000 0.817518 3.607983
v  -2.643026 0.817518 2.643026
v  2.280771 -0.184507 2.280771
v  2.643026 0.817518 2.643026
v  1.662946 13.244838 1.662946
v  0.000000 13.244838 2.270080
v  0.000000 5.719299 2.864080
v  2.098080 5.719299 2.098080
v  -1.662946 13.244838 1.662946
v  -2.098080 5.719299 2.098080
v  3.113470 -0.184507 0.000000
v  3.607983 0.817518 -0.000000
v  2.280771 -0.184507 -2.280771
v  2.643026 0.817518 -2.643026
v  1.662946 13.244838 -1.662946
v  2.270080 13.244838 0.000000
v  2.864080 5.719299 0.000000
v  2.098080 5.719299 -2.098080
v  0.000000 -0.184507 -3.113470
v  -0.000000 0.817518 -3.607983
v  -2.280771 -0.184507 -2.280771
v  -2.643026 0.817518 -2.643026
v  -1.662946 13.244838 -1.662946
v  0.000000 13.244838 -2.270080
v  0.000000 5.719299 -2.864080
v  -2.098080 5.719299 -2.098080
v  -3.113470 -0.184507 0.000000
v  -3.607983 0.817518 -0.000000
v  -2.270080 13.244838 0.000000
v  -2.864080 5.719299 0.000000
v  -0.000000 1.819542 3.644793
v  -2.669991 1.819542 2.669991
v  2.669991 1.819542 2.669991
v  3.644793 1.819542 -0.000000
v  2.669991 1.819542 -2.669991
v  -0.000000 1.819542 -3.644793
v  -2.669991 1.819542 -2.669991
v  -3.644793 1.819542 -0.000000
v  -1.611245 -0.504504 1.611245
v  0.000000 -0.504504 2.199504
v  1.611245 -0.504504 1.611245
v  2.199504 -0.504504 0.000000
v  1.611245 -0.504504 -1.611245
v  0.000000 -0.504504 -2.199504
v  -1.611245 -0.504504 -1.611245
v  -2.199504 -0.504504 0.000000
v  0.000000 -0.712837 -0.000000
v  -3.303376 10.931794 3.303376
v  -0.000000 10.931796 4.578785
v  -0.000000 13.306132 5.619038
v  -4.053869 13.306132 4.053869
v  3.303376 10.931794 3.303376
v  4.053869 13.306132 4.053869
v  2.796254 20.429146 2.796254
v  -0.000000 20.429146 3.875867
v  -0.000000 18.430393 5.354728
v  3.863182 18.430393 3.863183
v  -2.796254 20.429146 2.796254
v  -3.863182 18.430393 3.863183
v  4.578785 10.931794 0.000000
v  5.619038 13.306132 0.000000
v  3.303376 10.931794 -3.303375
v  4.053869 13.306134 -4.053868
v  2.796254 20.429146 -2.796254
v  3.875868 20.429146 -0.000000
v  5.354728 18.430395 0.000000
v  3.863182 18.430395 -3.863181
v  -0.000000 10.931795 -4.578785
v  -0.000000 13.306134 -5.619037
v  -3.303376 10.931794 -3.303375
v  -4.053869 13.306134 -4.053868
v  -2.796254 20.429146 -2.796254
v  -0.000000 20.429148 -3.875867
v  -0.000000 18.430395 -5.354727
v  -3.863182 18.430395 -3.863181
v  -4.578785 10.931794 0.000000
v  -5.619038 13.306132 0.000000
v  -3.875868 20.429146 -0.000000
v  -5.354728 18.430395 0.000000
v  -1.878711 10.166888 1.878711
v  -0.000000 10.166889 2.604068
v  1.878711 10.166888 1.878711
v  2.604067 10.166888 0.000000
v  1.878711 10.166888 -1.878710
v  -0.000000 10.166888 -2.604067
v  -1.878711 10.166888 -1.878710
v  -2.604068 10.166888 0.000000
v  1.674519 21.200109 1.674519
v  0.000000 21.200109 2.321038
v  -1.674519 21.200109 1.674519
v  1.674519 21.200109 -1.674518
v  2.321038 21.200109 -0.000000
v  -1.674519 21.200109 -1.674518
v  0.000000 21.200109 -2.321038
v  -2.321038 21.200109 -0.000000
v  -0.000000 21.518921 -0.000000
v  -0.000000 15.680470 5.865098
v  4.231389 15.680472 4.231389
v  -4.231389 15.680472 4.231389
v  5.865097 15.680472 0.000000
v  4.231389 15.680472 -4.231389
v  -0.000000 15.680472 -5.865097
v  -4.231389 15.680472 -4.231389
v  -5.865097 15.680472 0.000000
# 106 vertices

vn -0.498587 -0.709100 0.498587
vn 0.000000 -0.709364 0.704843
vn 0.000000 -0.234842 0.972034
vn -0.686536 -0.239451 0.686536
vn 0.498587 -0.709100 0.498587
vn 0.686536 -0.239451 0.686536
vn 0.704755 0.081499 0.704755
vn 0.000000 0.078686 0.996899
vn 0.000000 0.139539 0.990217
vn 0.699640 0.144942 0.699640
vn -0.704755 0.081499 0.704755
vn -0.699640 0.144942 0.699640
vn 0.704843 -0.709364 -0.000000
vn 0.972034 -0.234842 -0.000000
vn 0.498587 -0.709100 -0.498587
vn 0.686536 -0.239451 -0.686536
vn 0.704755 0.081499 -0.704755
vn 0.996899 0.078686 -0.000000
vn 0.990217 0.139539 -0.000000
vn 0.699640 0.144942 -0.699640
vn 0.000000 -0.709364 -0.704843
vn -0.000000 -0.234842 -0.972034
vn -0.498587 -0.709100 -0.498587
vn -0.686536 -0.239451 -0.686536
vn -0.704755 0.081499 -0.704755
vn 0.000000 0.078687 -0.996899
vn 0.000000 0.139539 -0.990217
vn -0.699640 0.144942 -0.699640
vn -0.704843 -0.709364 -0.000000
vn -0.972034 -0.234842 0.000000
vn -0.996899 0.078686 -0.000000
vn -0.990217 0.139539 -0.000000
vn 0.000000 0.078375 0.996924
vn -0.704808 0.080565 0.704808
vn 0.704808 0.080565 0.704808
vn 0.996924 0.078375 -0.000000
vn 0.704808 0.080565 -0.704808
vn 0.000000 0.078375 -0.996924
vn -0.704808 0.080565 -0.704808
vn -0.996924 0.078375 -0.000000
vn -0.168012 -0.971362 0.168012
vn 0.000000 -0.970943 0.239312
vn 0.168012 -0.971362 0.168012
vn 0.239312 -0.970943 -0.000000
vn 0.168012 -0.971362 -0.168012
vn 0.000000 -0.970943 -0.239312
vn -0.168012 -0.971362 -0.168012
vn -0.239312 -0.970943 -0.000000
vn 0.000000 -1.000000 -0.000000
vn -0.518270 -0.680289 0.518270
vn 0.000000 -0.680382 0.732858
vn 0.000000 -0.246913 0.969038
vn -0.684614 -0.250213 0.684614
vn 0.518270 -0.680289 0.518270
vn 0.684614 -0.250213 0.684614
vn 0.473090 0.743216 0.473091
vn 0.000000 0.740675 0.671863
vn 0.000000 0.381088 0.924539
vn 0.652720 0.384596 0.652720
vn -0.473091 0.743217 0.473090
vn -0.652720 0.384596 0.652720
vn 0.732857 -0.680382 -0.000000
vn 0.969038 -0.246913 -0.000000
vn 0.518270 -0.680289 -0.518270
vn 0.684614 -0.250213 -0.684614
vn 0.473091 0.743217 -0.473090
vn 0.671863 0.740675 0.000000
vn 0.924539 0.381088 0.000000
vn 0.652720 0.384596 -0.652720
vn 0.000000 -0.680382 -0.732858
vn 0.000000 -0.246913 -0.969038
vn -0.518270 -0.680289 -0.518270
vn -0.684614 -0.250213 -0.684614
vn -0.473091 0.743216 -0.473090
vn 0.000000 0.740676 -0.671863
vn 0.000000 0.381087 -0.924539
vn -0.652720 0.384596 -0.652720
vn -0.732857 -0.680382 -0.000000
vn -0.969038 -0.246913 -0.000000
vn -0.671863 0.740676 -0.000000
vn -0.924539 0.381088 0.000000
vn -0.250973 -0.934893 0.250973
vn 0.000000 -0.932489 0.361200
vn 0.250973 -0.934893 0.250973
vn 0.361199 -0.932489 -0.000000
vn 0.250973 -0.934893 -0.250973
vn 0.000000 -0.932489 -0.361199
vn -0.250973 -0.934893 -0.250973
vn -0.361199 -0.932489 -0.000000
vn 0.230822 0.945221 0.230822
vn -0.000000 0.944786 0.327687
vn -0.230821 0.945221 0.230822
vn 0.230821 0.945221 -0.230821
vn 0.327687 0.944786 -0.000000
vn -0.230821 0.945221 -0.230821
vn -0.000000 0.944787 -0.327686
vn -0.327687 0.944786 -0.000000
vn -0.000000 1.000000 -0.000000
vn 0.000000 0.038857 0.999245
vn 0.706557 0.039433 0.706557
vn -0.706557 0.039433 0.706557
vn 0.999245 0.038857 -0.000000
vn 0.706557 0.039433 -0.706557
vn -0.000000 0.038857 -0.999245
vn -0.706557 0.039433 -0.706557
vn -0.999245 0.038857 -0.000000
# 106 vertex normals

vt 0.627979 0.088811 0.000000
vt 0.662398 0.109865 0.000000
vt 0.650539 0.131531 0.000000
vt 0.609599 0.109820 0.000000
vt 0.695089 0.125059 0.000000
vt 0.689856 0.147163 0.000000
vt 0.683025 0.409498 0.000000
vt 0.638521 0.407305 0.000000
vt 0.629315 0.236136 0.000000
vt 0.679253 0.243537 0.000000
vt 0.594951 0.406832 0.000000
vt 0.580421 0.226091 0.000000
vt 0.730179 0.127999 0.000000
vt 0.730478 0.150668 0.000000
vt 0.765142 0.124744 0.000000
vt 0.770997 0.146784 0.000000
vt 0.775191 0.409885 0.000000
vt 0.729099 0.409825 0.000000
vt 0.729520 0.247513 0.000000
vt 0.779898 0.244108 0.000000
vt 0.797203 0.109331 0.000000
vt 0.809586 0.130898 0.000000
vt 0.830651 0.087959 0.000000
vt 0.849325 0.108824 0.000000
vt 0.863451 0.408028 0.000000
vt 0.819789 0.408122 0.000000
vt 0.830339 0.237234 0.000000
vt 0.880100 0.227793 0.000000
vt 0.858454 0.053458 0.000000
vt 0.890405 0.075702 0.000000
vt 0.566777 0.076977 0.000000
vt 0.599165 0.054552 0.000000
vt 0.554110 0.409095 0.000000
vt 0.530660 0.221668 0.000000
vt 0.931446 0.223388 0.000000
vt 0.904257 0.411011 0.000000
vt 0.642212 0.151967 0.000000
vt 0.597547 0.130621 0.000000
vt 0.686373 0.166431 0.000000
vt 0.730749 0.171041 0.000000
vt 0.775092 0.166000 0.000000
vt 0.818483 0.151272 0.000000
vt 0.861873 0.129576 0.000000
vt 0.910977 0.103167 0.000000
vt 0.545388 0.104425 0.000000
vt 0.648529 0.073466 0.000000
vt 0.674637 0.092914 0.000000
vt 0.700872 0.105823 0.000000
vt 0.729941 0.109479 0.000000
vt 0.758854 0.105569 0.000000
vt 0.784591 0.092475 0.000000
vt 0.809982 0.072795 0.000000
vt 0.823957 0.044025 0.000000
vt 0.633952 0.044836 0.000000
vt 0.729318 0.058009 0.000000
vt 0.154125 0.596158 0.000000
vt 0.250007 0.550624 0.000000
vt 0.262926 0.624198 0.000000
vt 0.162800 0.673482 0.000000
vt 0.355322 0.519972 0.000000
vt 0.361854 0.584787 0.000000
vt 0.404753 0.790048 0.000000
vt 0.347386 0.823827 0.000000
vt 0.309279 0.762318 0.000000
vt 0.385524 0.724627 0.000000
vt 0.294013 0.868519 0.000000
vt 0.232130 0.817498 0.000000
vt 0.464689 0.502176 0.000000
vt 0.465593 0.573463 0.000000
vt 0.575490 0.518612 0.000000
vt 0.569545 0.583448 0.000000
vt 0.528607 0.788603 0.000000
vt 0.466595 0.782069 0.000000
vt 0.465619 0.712841 0.000000
vt 0.545964 0.722672 0.000000
vt 0.679862 0.547597 0.000000
vt 0.668900 0.621566 0.000000
vt 0.775885 0.591069 0.000000
vt 0.769404 0.668990 0.000000
vt 0.641761 0.864943 0.000000
vt 0.586884 0.821155 0.000000
vt 0.622982 0.758434 0.000000
vt 0.701587 0.812187 0.000000
vt 0.876897 0.607062 0.000000
vt 0.877682 0.707527 0.000000
vt 0.051193 0.716824 0.000000
vt 0.051063 0.615837 0.000000
vt 0.252376 0.939141 0.000000
vt 0.158166 0.890951 0.000000
vt 0.781813 0.886325 0.000000
vt 0.686597 0.935105 0.000000
vt 0.151825 0.530009 0.000000
vt 0.241464 0.495007 0.000000
vt 0.345979 0.467454 0.000000
vt 0.462052 0.452662 0.000000
vt 0.575746 0.465866 0.000000
vt 0.682666 0.493281 0.000000
vt 0.771565 0.528866 0.000000
vt 0.843649 0.537670 0.000000
vt 0.081168 0.539836 0.000000
vt 0.422322 0.837350 0.000000
vt 0.382730 0.861214 0.000000
vt 0.349404 0.897412 0.000000
vt 0.512418 0.836363 0.000000
vt 0.467243 0.828493 0.000000
vt 0.587247 0.895074 0.000000
vt 0.552736 0.859427 0.000000
vt 0.335280 0.943363 0.000000
vt 0.602840 0.940800 0.000000
vt 0.468337 0.905639 0.000000
vt 0.279430 0.688845 0.000000
vt 0.370949 0.649136 0.000000
vt 0.186150 0.743158 0.000000
vt 0.465582 0.636831 0.000000
vt 0.560764 0.647436 0.000000
vt 0.652680 0.685719 0.000000
vt 0.746871 0.738367 0.000000
vt 0.083304 0.806011 0.000000
vt 0.850781 0.797378 0.000000
# 119 texture coords

o miniTree002
g miniTree002
usemtl wire_061135006
s 1
f 1/1/1 2/2/2 3/3/3 4/4/4 
f 5/5/5 6/6/6 3/3/3 2/2/2 
f 7/7/7 8/8/8 9/9/9 10/10/10 
f 11/11/11 12/12/12 9/9/9 8/8/8 
f 5/5/5 13/13/13 14/14/14 6/6/6 
f 15/15/15 16/16/16 14/14/14 13/13/13 
f 17/17/17 18/18/18 19/19/19 20/20/20 
f 7/7/7 10/10/10 19/19/19 18/18/18 
f 15/15/15 21/21/21 22/22/22 16/16/16 
f 23/23/23 24/24/24 22/22/22 21/21/21 
f 25/25/25 26/26/26 27/27/27 28/28/28 
f 17/17/17 20/20/20 27/27/27 26/26/26 
f 23/23/23 29/29/29 30/30/30 24/24/24 
f 1/1/1 4/4/4 30/31/30 29/32/29 
f 11/11/11 31/33/31 32/34/32 12/12/12 
f 25/25/25 28/28/28 32/35/32 31/36/31 
f 33/37/33 9/9/9 12/12/12 34/38/34 
f 35/39/35 10/10/10 9/9/9 33/37/33 
f 36/40/36 19/19/19 10/10/10 35/39/35 
f 37/41/37 20/20/20 19/19/19 36/40/36 
f 38/42/38 27/27/27 20/20/20 37/41/37 
f 39/43/39 28/28/28 27/27/27 38/42/38 
f 40/44/40 32/35/32 28/28/28 39/43/39 
f 34/38/34 12/12/12 32/34/32 40/45/40 
f 3/3/3 33/37/33 34/38/34 4/4/4 
f 6/6/6 35/39/35 33/37/33 3/3/3 
f 14/14/14 36/40/36 35/39/35 6/6/6 
f 16/16/16 37/41/37 36/40/36 14/14/14 
f 22/22/22 38/42/38 37/41/37 16/16/16 
f 24/24/24 39/43/39 38/42/38 22/22/22 
f 30/30/30 40/44/40 39/43/39 24/24/24 
f 4/4/4 34/38/34 40/45/40 30/31/30 
f 2/2/2 1/1/1 41/46/41 42/47/42 
f 5/5/5 2/2/2 42/47/42 43/48/43 
f 13/13/13 5/5/5 43/48/43 44/49/44 
f 15/15/15 13/13/13 44/49/44 45/50/45 
f 21/21/21 15/15/15 45/50/45 46/51/46 
f 23/23/23 21/21/21 46/51/46 47/52/47 
f 29/29/29 23/23/23 47/52/47 48/53/48 
f 1/1/1 29/32/29 48/54/48 41/46/41 
f 41/46/41 49/55/49 42/47/42 
f 42/47/42 49/55/49 43/48/43 
f 43/48/43 49/55/49 44/49/44 
f 44/49/44 49/55/49 45/50/45 
f 45/50/45 49/55/49 46/51/46 
f 46/51/46 49/55/49 47/52/47 
f 47/52/47 49/55/49 48/53/48 
f 48/54/48 49/55/49 41/46/41 
f 50/56/50 51/57/51 52/58/52 53/59/53 
f 54/60/54 55/61/55 52/58/52 51/57/51 
f 56/62/56 57/63/57 58/64/58 59/65/59 
f 60/66/60 61/67/61 58/64/58 57/63/57 
f 54/60/54 62/68/62 63/69/63 55/61/55 
f 64/70/64 65/71/65 63/69/63 62/68/62 
f 66/72/66 67/73/67 68/74/68 69/75/69 
f 56/62/56 59/65/59 68/74/68 67/73/67 
f 64/70/64 70/76/70 71/77/71 65/71/65 
f 72/78/72 73/79/73 71/77/71 70/76/70 
f 74/80/74 75/81/75 76/82/76 77/83/77 
f 66/72/66 69/75/69 76/82/76 75/81/75 
f 72/78/72 78/84/78 79/85/79 73/79/73 
f 50/56/50 53/59/53 79/86/79 78/87/78 
f 60/66/60 80/88/80 81/89/81 61/67/61 
f 74/80/74 77/83/77 81/90/81 80/91/80 
f 51/57/51 50/56/50 82/92/82 83/93/83 
f 54/60/54 51/57/51 83/93/83 84/94/84 
f 62/68/62 54/60/54 84/94/84 85/95/85 
f 64/70/64 62/68/62 85/95/85 86/96/86 
f 70/76/70 64/70/64 86/96/86 87/97/87 
f 72/78/72 70/76/70 87/97/87 88/98/88 
f 78/84/78 72/78/72 88/98/88 89/99/89 
f 50/56/50 78/87/78 89/100/89 82/92/82 
f 57/63/57 56/62/56 90/101/90 91/102/91 
f 60/66/60 57/63/57 91/102/91 92/103/92 
f 67/73/67 66/72/66 93/104/93 94/105/94 
f 56/62/56 67/73/67 94/105/94 90/101/90 
f 75/81/75 74/80/74 95/106/95 96/107/96 
f 66/72/66 75/81/75 96/107/96 93/104/93 
f 80/88/80 60/66/60 92/103/92 97/108/97 
f 74/80/74 80/91/80 97/109/97 95/106/95 
f 90/101/90 98/110/98 91/102/91 
f 91/102/91 98/110/98 92/103/92 
f 93/104/93 98/110/98 94/105/94 
f 94/105/94 98/110/98 90/101/90 
f 95/106/95 98/110/98 96/107/96 
f 96/107/96 98/110/98 93/104/93 
f 92/103/92 98/110/98 97/108/97 
f 97/109/97 98/110/98 95/106/95 
f 58/64/58 99/111/99 100/112/100 59/65/59 
f 61/67/61 101/113/101 99/111/99 58/64/58 
f 68/74/68 102/114/102 103/115/103 69/75/69 
f 59/65/59 100/112/100 102/114/102 68/74/68 
f 76/82/76 104/116/104 105/117/105 77/83/77 
f 69/75/69 103/115/103 104/116/104 76/82/76 
f 81/89/81 106/118/106 101/113/101 61/67/61 
f 77/83/77 105/117/105 106/119/106 81/90/81 
f 52/58/52 99/111/99 101/113/101 53/59/53 
f 55/61/55 100/112/100 99/111/99 52/58/52 
f 63/69/63 102/114/102 100/112/100 55/61/55 
f 65/71/65 103/115/103 102/114/102 63/69/63 
f 71/77/71 104/116/104 103/115/103 65/71/65 
f 73/79/73 105/117/105 104/116/104 71/77/71 
f 79/85/79 106/119/106 105/117/105 73/79/73 
f 53/59/53 101/113/101 106/118/106 79/86/79 
# 88 polygons - 16 triangles

