# 3ds Max Wavefront OBJ Exporter v0.99 - (c)2007 guruware
# File Created: 26.08.2022 02:22:48

mtllib mod_miniTree003_01.mtl

#
# object miniTree003
#

v  -2.280771 -0.184507 2.280771
v  0.000000 -0.184507 3.113470
v  -0.000000 0.817518 3.607983
v  -2.643026 0.817518 2.643026
v  2.280771 -0.184507 2.280771
v  2.643026 0.817518 2.643026
v  1.662946 13.244838 1.662946
v  0.000000 13.244838 2.270080
v  0.000000 5.719299 2.864080
v  2.098080 5.719299 2.098080
v  -1.662946 13.244838 1.662946
v  -2.098080 5.719299 2.098080
v  3.113470 -0.184507 0.000000
v  3.607983 0.817518 -0.000000
v  2.280771 -0.184507 -2.280771
v  2.643026 0.817518 -2.643026
v  1.662946 13.244838 -1.662946
v  2.270080 13.244838 0.000000
v  2.864080 5.719299 0.000000
v  2.098080 5.719299 -2.098080
v  0.000000 -0.184507 -3.113470
v  -0.000000 0.817518 -3.607983
v  -2.280771 -0.184507 -2.280771
v  -2.643026 0.817518 -2.643026
v  -1.662946 13.244838 -1.662946
v  0.000000 13.244838 -2.270080
v  0.000000 5.719299 -2.864080
v  -2.098080 5.719299 -2.098080
v  -3.113470 -0.184507 0.000000
v  -3.607983 0.817518 -0.000000
v  -2.270080 13.244838 0.000000
v  -2.864080 5.719299 0.000000
v  -0.000000 1.819542 3.644793
v  -2.669991 1.819542 2.669991
v  2.669991 1.819542 2.669991
v  3.644793 1.819542 -0.000000
v  2.669991 1.819542 -2.669991
v  -0.000000 1.819542 -3.644793
v  -2.669991 1.819542 -2.669991
v  -3.644793 1.819542 -0.000000
v  -1.611245 -0.504504 1.611245
v  0.000000 -0.504504 2.199504
v  1.611245 -0.504504 1.611245
v  2.199504 -0.504504 0.000000
v  1.611245 -0.504504 -1.611245
v  0.000000 -0.504504 -2.199504
v  -1.611245 -0.504504 -1.611245
v  -2.199504 -0.504504 0.000000
v  0.000000 -0.712837 -0.000000
v  -3.253973 10.874785 3.253302
v  -0.000891 10.873039 4.508584
v  0.002625 12.192276 5.545383
v  -4.042326 12.183324 4.017953
v  3.230374 10.848405 3.228194
v  4.029169 12.143223 3.991152
v  2.291451 21.158731 1.793161
v  0.863366 21.285543 3.013882
v  0.775007 19.769175 4.081574
v  2.927446 19.777552 2.466838
v  -0.655871 21.135382 2.099403
v  -1.409860 19.517063 2.677133
v  4.502036 10.876723 -0.002879
v  5.618533 12.192994 -0.009497
v  3.293842 10.921414 -3.294225
v  4.078341 12.310700 -4.037165
v  2.196275 21.170853 -1.869372
v  2.560774 20.978336 -0.109948
v  3.209775 19.592976 -0.136007
v  2.783325 19.843245 -2.630589
v  0.001791 10.892410 -4.532033
v  0.006623 12.244976 -5.566508
v  -3.212906 10.829963 -3.212731
v  -4.031400 12.158426 -4.013462
v  -0.664851 21.195639 -1.921975
v  0.809076 21.416082 -2.831317
v  0.644760 20.008427 -3.927327
v  -1.405343 19.634892 -2.510460
v  -4.536424 10.896567 0.000616
v  -5.591473 12.256881 0.000709
v  -1.086117 20.994095 0.007723
v  -2.005524 19.180342 0.034153
v  -1.877407 10.166201 1.877408
v  -0.000009 10.164948 2.598976
v  1.875007 10.164984 1.875005
v  2.602148 10.166151 -0.000005
v  1.878667 10.166865 -1.878666
v  0.000095 10.163664 -2.595536
v  -1.861939 10.158334 -1.861957
v  -2.600707 10.165606 0.000014
v  1.592568 22.085434 1.016979
v  0.895572 22.286747 1.784787
v  0.103724 22.178022 1.260067
v  1.571168 22.068823 -1.057927
v  1.779945 21.974878 -0.076513
v  0.106999 22.185301 -1.136161
v  0.894815 22.335068 -1.628127
v  -0.140544 22.112211 -0.013752
v  0.866754 22.402924 -0.038045
v  0.580424 18.021652 4.655506
v  3.471513 18.093672 3.088811
v  -2.311796 17.982948 3.192698
v  3.823306 17.945475 -0.131016
v  3.310292 18.114126 -3.290304
v  0.436005 18.168598 -4.560708
v  -2.356644 17.981632 -3.117740
v  -3.265615 17.570683 0.042100
v  0.078876 14.033218 5.793844
v  -4.068956 14.110961 4.190862
v  4.207569 13.975700 4.159233
v  5.609438 14.150317 -0.032064
v  4.179674 13.967221 -4.187909
v  0.049446 14.028811 -5.792817
v  -4.084306 14.058662 -4.186086
v  -5.502821 13.994379 0.001806
v  0.323358 16.146709 5.302690
v  3.995132 16.097734 3.766213
v  -3.329829 16.265303 3.788958
v  4.822984 16.190290 -0.096935
v  3.888088 16.036808 -3.922467
v  0.226510 16.184423 -5.275222
v  -3.396772 16.154997 -3.790025
v  -4.569243 15.933524 0.021651
# 122 vertices

vn -0.498587 -0.709100 0.498587
vn 0.000000 -0.709364 0.704843
vn 0.000000 -0.234842 0.972034
vn -0.686536 -0.239451 0.686536
vn 0.498587 -0.709100 0.498587
vn 0.686536 -0.239451 0.686536
vn 0.704755 0.081499 0.704755
vn 0.000000 0.078686 0.996899
vn 0.000000 0.139539 0.990217
vn 0.699640 0.144942 0.699640
vn -0.704755 0.081499 0.704755
vn -0.699640 0.144942 0.699640
vn 0.704843 -0.709364 -0.000000
vn 0.972034 -0.234842 -0.000000
vn 0.498587 -0.709100 -0.498587
vn 0.686536 -0.239451 -0.686536
vn 0.704755 0.081499 -0.704755
vn 0.996899 0.078686 -0.000000
vn 0.990217 0.139539 -0.000000
vn 0.699640 0.144942 -0.699640
vn 0.000000 -0.709364 -0.704843
vn -0.000000 -0.234842 -0.972034
vn -0.498587 -0.709100 -0.498587
vn -0.686536 -0.239451 -0.686536
vn -0.704755 0.081499 -0.704755
vn 0.000000 0.078687 -0.996899
vn 0.000000 0.139539 -0.990217
vn -0.699640 0.144942 -0.699640
vn -0.704843 -0.709364 -0.000000
vn -0.972034 -0.234842 0.000000
vn -0.996899 0.078686 -0.000000
vn -0.990217 0.139539 -0.000000
vn 0.000000 0.078375 0.996924
vn -0.704808 0.080565 0.704808
vn 0.704808 0.080565 0.704808
vn 0.996924 0.078375 -0.000000
vn 0.704808 0.080565 -0.704808
vn 0.000000 0.078375 -0.996924
vn -0.704808 0.080565 -0.704808
vn -0.996924 0.078375 -0.000000
vn -0.168012 -0.971362 0.168012
vn 0.000000 -0.970943 0.239312
vn 0.168012 -0.971362 0.168012
vn 0.239312 -0.970943 -0.000000
vn 0.168012 -0.971362 -0.168012
vn 0.000000 -0.970943 -0.239312
vn -0.168012 -0.971362 -0.168012
vn -0.239312 -0.970943 -0.000000
vn 0.000000 -1.000000 -0.000000
vn -0.433912 -0.788324 0.436194
vn 0.000043 -0.778180 0.628041
vn -0.003449 -0.368554 0.929600
vn -0.667332 -0.352075 0.656286
vn 0.429766 -0.793226 0.431387
vn 0.650138 -0.384266 0.655485
vn 0.715131 0.616335 0.329724
vn 0.076664 0.656784 0.750172
vn 0.035333 0.427922 0.903125
vn 0.776579 0.472570 0.416657
vn -0.671654 0.602095 0.431697
vn -0.718716 0.535504 0.443488
vn 0.611077 -0.791571 0.000454
vn 0.947300 -0.320341 0.001920
vn 0.449886 -0.770139 -0.452204
vn 0.662772 -0.348782 -0.662634
vn 0.697015 0.622986 -0.355047
vn 0.857791 0.513440 -0.023944
vn 0.923116 0.383801 -0.023513
vn 0.746969 0.482254 -0.457677
vn -0.001343 -0.772033 -0.635581
vn -0.001085 -0.360048 -0.932933
vn -0.425583 -0.797789 -0.427098
vn -0.662683 -0.364448 -0.654239
vn -0.679648 0.611371 -0.405345
vn 0.044206 0.690954 -0.721546
vn -0.029964 0.464185 -0.885231
vn -0.737027 0.540673 -0.405541
vn -0.634456 -0.772959 -0.000630
vn -0.961355 -0.275311 -0.000635
vn -0.840744 0.541419 0.003874
vn -0.835235 0.549797 0.010236
vn -0.241860 -0.939662 0.241948
vn 0.000112 -0.937616 0.347672
vn 0.237536 -0.941834 0.237750
vn 0.350308 -0.936634 0.000260
vn 0.249335 -0.935723 -0.249510
vn -0.000547 -0.935921 -0.352208
vn -0.234457 -0.943398 -0.234583
vn -0.353270 -0.935521 -0.000471
vn 0.570697 0.811002 0.128767
vn 0.126445 0.883662 0.450725
vn -0.484201 0.848085 0.215177
vn 0.589920 0.794235 -0.145548
vn 0.645861 0.763317 -0.014549
vn -0.483618 0.850314 -0.207556
vn 0.114649 0.902406 -0.415353
vn -0.574048 0.818812 -0.004004
vn 0.075985 0.997109 0.000668
vn 0.020289 0.317050 0.948192
vn 0.769199 0.398588 0.499460
vn -0.653755 0.560258 0.508640
vn 0.903612 0.427747 -0.022747
vn 0.733973 0.398865 -0.549718
vn -0.031926 0.335682 -0.941434
vn -0.667374 0.561661 -0.489029
vn -0.784415 0.620203 0.006358
vn -0.002608 0.045516 0.998960
vn -0.716654 0.139401 0.683355
vn 0.720354 0.028951 0.693002
vn 0.983089 0.183110 -0.002642
vn 0.718309 0.036720 -0.694755
vn -0.005281 0.053387 -0.998560
vn -0.719041 0.129061 -0.682879
vn -0.971813 0.235751 -0.000325
vn 0.010380 0.272077 0.962220
vn 0.740489 0.281235 0.610396
vn -0.659855 0.450867 0.601091
vn 0.904931 0.425205 -0.017361
vn 0.715120 0.274810 -0.642715
vn -0.012190 0.284989 -0.958453
vn -0.666916 0.444037 -0.598376
vn -0.855032 0.518571 0.002106
# 122 vertex normals

vt 0.636762 0.103454 0.000000
vt 0.669874 0.123901 0.000000
vt 0.658349 0.144751 0.000000
vt 0.618948 0.123643 0.000000
vt 0.701344 0.138690 0.000000
vt 0.696207 0.159989 0.000000
vt 0.688549 0.412990 0.000000
vt 0.645632 0.410693 0.000000
vt 0.637450 0.245559 0.000000
vt 0.685587 0.252901 0.000000
vt 0.603610 0.410060 0.000000
vt 0.590332 0.235671 0.000000
vt 0.735177 0.141668 0.000000
vt 0.735374 0.163535 0.000000
vt 0.768913 0.138672 0.000000
vt 0.774471 0.159954 0.000000
vt 0.777444 0.413739 0.000000
vt 0.732987 0.413494 0.000000
vt 0.734054 0.256941 0.000000
vt 0.782659 0.253861 0.000000
vt 0.799900 0.123936 0.000000
vt 0.811756 0.144788 0.000000
vt 0.832248 0.103458 0.000000
vt 0.850176 0.123659 0.000000
vt 0.862580 0.412307 0.000000
vt 0.820466 0.412221 0.000000
vt 0.831340 0.247437 0.000000
vt 0.879374 0.238534 0.000000
vt 0.859206 0.070295 0.000000
vt 0.889933 0.091880 0.000000
vt 0.577780 0.091790 0.000000
vt 0.609110 0.070292 0.000000
vt 0.564208 0.412076 0.000000
vt 0.542353 0.231201 0.000000
vt 0.928916 0.234494 0.000000
vt 0.901927 0.415352 0.000000
vt 0.650233 0.164427 0.000000
vt 0.607240 0.143656 0.000000
vt 0.692769 0.178559 0.000000
vt 0.735552 0.183186 0.000000
vt 0.778342 0.178505 0.000000
vt 0.820254 0.164476 0.000000
vt 0.862194 0.143726 0.000000
vt 0.909664 0.118455 0.000000
vt 0.557037 0.118177 0.000000
vt 0.656645 0.088737 0.000000
vt 0.681748 0.107602 0.000000
vt 0.707000 0.120159 0.000000
vt 0.735023 0.123804 0.000000
vt 0.762927 0.120151 0.000000
vt 0.787805 0.107626 0.000000
vt 0.812374 0.088748 0.000000
vt 0.825971 0.061056 0.000000
vt 0.642703 0.061063 0.000000
vt 0.734632 0.074158 0.000000
vt 0.166164 0.569474 0.000000
vt 0.268067 0.544069 0.000000
vt 0.271212 0.593992 0.000000
vt 0.164283 0.618785 0.000000
vt 0.372716 0.527273 0.000000
vt 0.375669 0.572042 0.000000
vt 0.422962 0.848583 0.000000
vt 0.367431 0.853885 0.000000
vt 0.339828 0.808882 0.000000
vt 0.412708 0.801400 0.000000
vt 0.327104 0.880946 0.000000
vt 0.274379 0.843198 0.000000
vt 0.478615 0.517773 0.000000
vt 0.478747 0.568314 0.000000
vt 0.585315 0.530859 0.000000
vt 0.581742 0.577116 0.000000
vt 0.538261 0.850269 0.000000
vt 0.482381 0.854351 0.000000
vt 0.482794 0.803290 0.000000
vt 0.550488 0.804070 0.000000
vt 0.688800 0.545215 0.000000
vt 0.686054 0.595852 0.000000
vt 0.789992 0.567613 0.000000
vt 0.793384 0.618832 0.000000
vt 0.630570 0.885535 0.000000
vt 0.588091 0.860229 0.000000
vt 0.617000 0.817106 0.000000
vt 0.682038 0.848209 0.000000
vt 0.892964 0.571117 0.000000
vt 0.908501 0.636358 0.000000
vt 0.045052 0.640384 0.000000
vt 0.060483 0.574475 0.000000
vt 0.298626 0.936790 0.000000
vt 0.217374 0.898666 0.000000
vt 0.743030 0.899361 0.000000
vt 0.661353 0.936188 0.000000
vt 0.172464 0.506156 0.000000
vt 0.264590 0.487354 0.000000
vt 0.366799 0.473177 0.000000
vt 0.476514 0.465007 0.000000
vt 0.583472 0.474265 0.000000
vt 0.687408 0.489451 0.000000
vt 0.778970 0.509460 0.000000
vt 0.851710 0.507906 0.000000
vt 0.100094 0.504640 0.000000
vt 0.433587 0.890962 0.000000
vt 0.394725 0.889186 0.000000
vt 0.373538 0.909123 0.000000
vt 0.525249 0.891590 0.000000
vt 0.481256 0.898872 0.000000
vt 0.584267 0.912408 0.000000
vt 0.560638 0.893414 0.000000
vt 0.369992 0.942934 0.000000
vt 0.591446 0.942940 0.000000
vt 0.425889 0.930854 0.000000
vt 0.535763 0.931313 0.000000
vt 0.314810 0.762786 0.000000
vt 0.400416 0.748254 0.000000
vt 0.231838 0.799815 0.000000
vt 0.482379 0.749241 0.000000
vt 0.563336 0.749530 0.000000
vt 0.644152 0.768242 0.000000
vt 0.726420 0.799036 0.000000
vt 0.149427 0.843807 0.000000
vt 0.812251 0.847169 0.000000
vt 0.278152 0.648186 0.000000
vt 0.173266 0.676601 0.000000
vt 0.379304 0.625796 0.000000
vt 0.479308 0.625459 0.000000
vt 0.578900 0.625529 0.000000
vt 0.679764 0.648095 0.000000
vt 0.784999 0.675912 0.000000
vt 0.901797 0.703451 0.000000
vt 0.054867 0.707083 0.000000
vt 0.293816 0.709526 0.000000
vt 0.388435 0.687549 0.000000
vt 0.197295 0.743281 0.000000
vt 0.481005 0.689595 0.000000
vt 0.573184 0.686154 0.000000
vt 0.665197 0.710929 0.000000
vt 0.762048 0.739954 0.000000
vt 0.092862 0.781580 0.000000
vt 0.867271 0.781415 0.000000
# 138 texture coords

o miniTree003
g miniTree003
usemtl wire_061135006
s 1
f 1/1/1 2/2/2 3/3/3 4/4/4 
f 5/5/5 6/6/6 3/3/3 2/2/2 
f 7/7/7 8/8/8 9/9/9 10/10/10 
f 11/11/11 12/12/12 9/9/9 8/8/8 
f 5/5/5 13/13/13 14/14/14 6/6/6 
f 15/15/15 16/16/16 14/14/14 13/13/13 
f 17/17/17 18/18/18 19/19/19 20/20/20 
f 7/7/7 10/10/10 19/19/19 18/18/18 
f 15/15/15 21/21/21 22/22/22 16/16/16 
f 23/23/23 24/24/24 22/22/22 21/21/21 
f 25/25/25 26/26/26 27/27/27 28/28/28 
f 17/17/17 20/20/20 27/27/27 26/26/26 
f 23/23/23 29/29/29 30/30/30 24/24/24 
f 1/1/1 4/4/4 30/31/30 29/32/29 
f 11/11/11 31/33/31 32/34/32 12/12/12 
f 25/25/25 28/28/28 32/35/32 31/36/31 
f 33/37/33 9/9/9 12/12/12 34/38/34 
f 35/39/35 10/10/10 9/9/9 33/37/33 
f 36/40/36 19/19/19 10/10/10 35/39/35 
f 37/41/37 20/20/20 19/19/19 36/40/36 
f 38/42/38 27/27/27 20/20/20 37/41/37 
f 39/43/39 28/28/28 27/27/27 38/42/38 
f 40/44/40 32/35/32 28/28/28 39/43/39 
f 34/38/34 12/12/12 32/34/32 40/45/40 
f 3/3/3 33/37/33 34/38/34 4/4/4 
f 6/6/6 35/39/35 33/37/33 3/3/3 
f 14/14/14 36/40/36 35/39/35 6/6/6 
f 16/16/16 37/41/37 36/40/36 14/14/14 
f 22/22/22 38/42/38 37/41/37 16/16/16 
f 24/24/24 39/43/39 38/42/38 22/22/22 
f 30/30/30 40/44/40 39/43/39 24/24/24 
f 4/4/4 34/38/34 40/45/40 30/31/30 
f 2/2/2 1/1/1 41/46/41 42/47/42 
f 5/5/5 2/2/2 42/47/42 43/48/43 
f 13/13/13 5/5/5 43/48/43 44/49/44 
f 15/15/15 13/13/13 44/49/44 45/50/45 
f 21/21/21 15/15/15 45/50/45 46/51/46 
f 23/23/23 21/21/21 46/51/46 47/52/47 
f 29/29/29 23/23/23 47/52/47 48/53/48 
f 1/1/1 29/32/29 48/54/48 41/46/41 
f 41/46/41 49/55/49 42/47/42 
f 42/47/42 49/55/49 43/48/43 
f 43/48/43 49/55/49 44/49/44 
f 44/49/44 49/55/49 45/50/45 
f 45/50/45 49/55/49 46/51/46 
f 46/51/46 49/55/49 47/52/47 
f 47/52/47 49/55/49 48/53/48 
f 48/54/48 49/55/49 41/46/41 
f 50/56/50 51/57/51 52/58/52 53/59/53 
f 54/60/54 55/61/55 52/58/52 51/57/51 
f 56/62/56 57/63/57 58/64/58 59/65/59 
f 60/66/60 61/67/61 58/64/58 57/63/57 
f 54/60/54 62/68/62 63/69/63 55/61/55 
f 64/70/64 65/71/65 63/69/63 62/68/62 
f 66/72/66 67/73/67 68/74/68 69/75/69 
f 56/62/56 59/65/59 68/74/68 67/73/67 
f 64/70/64 70/76/70 71/77/71 65/71/65 
f 72/78/72 73/79/73 71/77/71 70/76/70 
f 74/80/74 75/81/75 76/82/76 77/83/77 
f 66/72/66 69/75/69 76/82/76 75/81/75 
f 72/78/72 78/84/78 79/85/79 73/79/73 
f 50/56/50 53/59/53 79/86/79 78/87/78 
f 60/66/60 80/88/80 81/89/81 61/67/61 
f 74/80/74 77/83/77 81/90/81 80/91/80 
f 51/57/51 50/56/50 82/92/82 83/93/83 
f 54/60/54 51/57/51 83/93/83 84/94/84 
f 62/68/62 54/60/54 84/94/84 85/95/85 
f 64/70/64 62/68/62 85/95/85 86/96/86 
f 70/76/70 64/70/64 86/96/86 87/97/87 
f 72/78/72 70/76/70 87/97/87 88/98/88 
f 78/84/78 72/78/72 88/98/88 89/99/89 
f 50/56/50 78/87/78 89/100/89 82/92/82 
f 57/63/57 56/62/56 90/101/90 91/102/91 
f 60/66/60 57/63/57 91/102/91 92/103/92 
f 67/73/67 66/72/66 93/104/93 94/105/94 
f 56/62/56 67/73/67 94/105/94 90/101/90 
f 75/81/75 74/80/74 95/106/95 96/107/96 
f 66/72/66 75/81/75 96/107/96 93/104/93 
f 80/88/80 60/66/60 92/103/92 97/108/97 
f 74/80/74 80/91/80 97/109/97 95/106/95 
f 90/101/90 98/110/98 91/102/91 
f 91/102/91 98/110/98 92/103/92 
f 93/104/93 98/111/98 94/105/94 
f 94/105/94 98/110/98 90/101/90 
f 95/106/95 98/111/98 96/107/96 
f 96/107/96 98/111/98 93/104/93 
f 92/103/92 98/110/98 97/108/97 
f 97/109/97 98/111/98 95/106/95 
f 58/64/58 99/112/99 100/113/100 59/65/59 
f 61/67/61 101/114/101 99/112/99 58/64/58 
f 68/74/68 102/115/102 103/116/103 69/75/69 
f 59/65/59 100/113/100 102/115/102 68/74/68 
f 76/82/76 104/117/104 105/118/105 77/83/77 
f 69/75/69 103/116/103 104/117/104 76/82/76 
f 81/89/81 106/119/106 101/114/101 61/67/61 
f 77/83/77 105/118/105 106/120/106 81/90/81 
f 52/58/52 107/121/107 108/122/108 53/59/53 
f 55/61/55 109/123/109 107/121/107 52/58/52 
f 63/69/63 110/124/110 109/123/109 55/61/55 
f 65/71/65 111/125/111 110/124/110 63/69/63 
f 71/77/71 112/126/112 111/125/111 65/71/65 
f 73/79/73 113/127/113 112/126/112 71/77/71 
f 79/85/79 114/128/114 113/127/113 73/79/73 
f 53/59/53 108/122/108 114/129/114 79/86/79 
f 99/112/99 115/130/115 116/131/116 100/113/100 
f 101/114/101 117/132/117 115/130/115 99/112/99 
f 102/115/102 118/133/118 119/134/119 103/116/103 
f 100/113/100 116/131/116 118/133/118 102/115/102 
f 104/117/104 120/135/120 121/136/121 105/118/105 
f 103/116/103 119/134/119 120/135/120 104/117/104 
f 106/119/106 122/137/122 117/132/117 101/114/101 
f 105/118/105 121/136/121 122/138/122 106/120/106 
f 115/130/115 107/121/107 109/123/109 116/131/116 
f 117/132/117 108/122/108 107/121/107 115/130/115 
f 118/133/118 110/124/110 111/125/111 119/134/119 
f 116/131/116 109/123/109 110/124/110 118/133/118 
f 120/135/120 112/126/112 113/127/113 121/136/121 
f 119/134/119 111/125/111 112/126/112 120/135/120 
f 122/137/122 114/129/114 108/122/108 117/132/117 
f 121/136/121 113/127/113 114/128/114 122/138/122 
# 104 polygons - 16 triangles

