# 3ds Max Wavefront OBJ Exporter v0.99 - (c)2007 guruware
# File Created: 11.07.2022 19:51:08

mtllib clay block 06.mtl

#
# object clay_block
#

v  -1.578882 1.990845 -1.598418
v  -1.578882 1.990844 1.598418
v  1.578882 1.990844 1.598418
v  1.578882 1.990845 -1.598418
v  -1.578882 -1.990845 -1.598418
v  1.578882 -1.990845 -1.598418
v  1.578882 -1.990846 1.598418
v  -1.578882 -1.990846 1.598418
v  -1.578882 1.578883 -2.010380
v  1.578882 1.578883 -2.010380
v  1.578882 -1.578883 -2.010380
v  -1.578882 -1.578883 -2.010380
v  1.990844 1.578882 -1.598418
v  1.990844 1.578882 1.598418
v  1.990844 -1.578883 1.598418
v  1.990844 -1.578883 -1.598418
v  1.578882 1.578882 2.010380
v  -1.578882 1.578882 2.010380
v  -1.578882 -1.578884 2.010380
v  1.578882 -1.578884 2.010380
v  -1.990844 1.578882 1.598418
v  -1.990844 1.578882 -1.598418
v  -1.990844 -1.578883 -1.598418
v  -1.990844 -1.578884 1.598418
v  -1.563753 1.834063 -1.871159
v  -1.777110 1.777111 -1.814207
v  -1.851807 1.851807 -1.598418
v  -1.851807 1.851807 1.598418
v  -1.777111 1.777110 1.814207
v  -1.563753 1.834062 1.871159
v  1.563753 1.834062 1.871159
v  1.777110 1.777110 1.814207
v  1.851807 1.851807 1.598418
v  1.851807 1.851807 -1.598418
v  1.777111 1.777111 -1.814207
v  1.563753 1.834063 -1.871159
v  -1.851807 -1.851808 -1.598418
v  -1.777110 -1.777111 -1.814207
v  -1.563753 -1.834063 -1.871159
v  1.563753 -1.834063 -1.871159
v  1.777110 -1.777111 -1.814207
v  1.851807 -1.851808 -1.598418
v  1.851807 -1.851808 1.598418
v  1.777111 -1.777112 1.814207
v  1.563753 -1.834064 1.871159
v  -1.563753 -1.834064 1.871159
v  -1.777110 -1.777112 1.814207
v  -1.851807 -1.851809 1.598418
v  -1.834063 1.563753 -1.871159
v  1.834063 1.563753 -1.871159
v  1.834063 -1.563754 -1.871159
v  -1.834063 -1.563754 -1.871159
v  1.834063 1.563753 1.871159
v  1.834063 -1.563754 1.871159
v  -1.834063 1.563753 1.871159
v  -1.834063 -1.563754 1.871159
# 56 vertices

vn -0.222182 0.942914 -0.248089
vn -0.222182 0.942914 0.248089
vn 0.222182 0.942914 0.248089
vn 0.222182 0.942914 -0.248089
vn -0.222167 -0.942914 -0.248104
vn 0.222182 -0.942914 -0.248090
vn 0.222182 -0.942914 0.248089
vn -0.222182 -0.942914 0.248089
vn -0.240947 0.240947 -0.940154
vn 0.240947 0.240947 -0.940154
vn 0.240948 -0.240948 -0.940153
vn -0.240948 -0.240948 -0.940153
vn 0.942914 0.222182 -0.248089
vn 0.942914 0.222182 0.248089
vn 0.942914 -0.222182 0.248089
vn 0.942914 -0.222182 -0.248089
vn 0.240948 0.240948 0.940153
vn -0.240948 0.240948 0.940153
vn -0.240947 -0.240947 0.940154
vn 0.240947 -0.240948 0.940154
vn -0.942914 0.222182 0.248089
vn -0.942914 0.222182 -0.248089
vn -0.942914 -0.222182 -0.248089
vn -0.942914 -0.222182 0.248089
vn -0.168926 0.689530 -0.704281
vn -0.552957 0.552957 -0.623279
vn -0.690342 0.690342 -0.216465
vn -0.690342 0.690342 0.216465
vn -0.552958 0.552958 0.623278
vn -0.168926 0.689530 0.704281
vn 0.168926 0.689530 0.704281
vn 0.552957 0.552958 0.623278
vn 0.690342 0.690341 0.216465
vn 0.690342 0.690342 -0.216465
vn 0.552958 0.552957 -0.623278
vn 0.168926 0.689530 -0.704281
vn -0.690330 -0.690357 -0.216453
vn -0.552957 -0.552957 -0.623279
vn -0.168926 -0.689531 -0.704281
vn 0.168926 -0.689530 -0.704281
vn 0.552957 -0.552958 -0.623279
vn 0.690342 -0.690341 -0.216465
vn 0.690342 -0.690342 0.216465
vn 0.552958 -0.552957 0.623278
vn 0.168926 -0.689530 0.704281
vn -0.168926 -0.689530 0.704281
vn -0.552957 -0.552958 0.623278
vn -0.690342 -0.690342 0.216465
vn -0.689530 0.168926 -0.704281
vn 0.689530 0.168926 -0.704281
vn 0.689531 -0.168926 -0.704281
vn -0.689531 -0.168926 -0.704281
vn 0.689530 0.168926 0.704281
vn 0.689530 -0.168926 0.704281
vn -0.689530 0.168926 0.704281
vn -0.689530 -0.168926 0.704281
# 56 vertex normals

vt 0.230917 0.377697 0.000000
vt 0.231764 0.569609 0.000000
vt 0.040846 0.569609 0.000000
vt 0.039990 0.377697 0.000000
vt 0.522749 0.377697 0.000000
vt 0.714640 0.377697 0.000000
vt 0.715448 0.569609 0.000000
vt 0.523577 0.569609 0.000000
vt 0.956202 0.136389 0.000000
vt 0.955824 0.327973 0.000000
vt 0.764570 0.327973 0.000000
vt 0.764618 0.136389 0.000000
vt 0.955879 0.377697 0.000000
vt 0.956689 0.569609 0.000000
vt 0.765433 0.569609 0.000000
vt 0.764625 0.377697 0.000000
vt 0.956800 0.619335 0.000000
vt 0.957184 0.810924 0.000000
vt 0.765594 0.810924 0.000000
vt 0.765544 0.619335 0.000000
vt 0.281699 0.569609 0.000000
vt 0.280851 0.377697 0.000000
vt 0.472693 0.377697 0.000000
vt 0.473520 0.569609 0.000000
vt 0.230806 0.352967 0.000000
vt 0.255715 0.352967 0.000000
vt 0.255824 0.377697 0.000000
vt 0.256671 0.569609 0.000000
vt 0.256781 0.594340 0.000000
vt 0.231873 0.594340 0.000000
vt 0.040955 0.594340 0.000000
vt 0.016048 0.594340 0.000000
vt 0.015937 0.569609 0.000000
vt 0.015081 0.377697 0.000000
vt 0.014971 0.352967 0.000000
vt 0.039879 0.352967 0.000000
vt 0.497718 0.377697 0.000000
vt 0.497611 0.352967 0.000000
vt 0.522645 0.352967 0.000000
vt 0.714535 0.352967 0.000000
vt 0.739569 0.352967 0.000000
vt 0.739674 0.377697 0.000000
vt 0.740482 0.569609 0.000000
vt 0.740586 0.594340 0.000000
vt 0.715555 0.594340 0.000000
vt 0.523683 0.594340 0.000000
vt 0.498652 0.594340 0.000000
vt 0.498545 0.569609 0.000000
vt 0.956209 0.111395 0.000000
vt 0.981203 0.111395 0.000000
vt 0.981153 0.136389 0.000000
vt 0.980775 0.327973 0.000000
vt 0.980725 0.352967 0.000000
vt 0.955774 0.352967 0.000000
vt 0.764520 0.352967 0.000000
vt 0.739576 0.327973 0.000000
vt 0.739624 0.136389 0.000000
vt 0.739631 0.111395 0.000000
vt 0.764625 0.111395 0.000000
vt 0.980830 0.377697 0.000000
vt 0.981640 0.569609 0.000000
vt 0.981744 0.594340 0.000000
vt 0.956793 0.594340 0.000000
vt 0.765537 0.594340 0.000000
vt 0.981795 0.619335 0.000000
vt 0.982179 0.810924 0.000000
vt 0.982229 0.835919 0.000000
vt 0.957234 0.835919 0.000000
vt 0.765644 0.835919 0.000000
vt 0.740649 0.835919 0.000000
vt 0.740643 0.810924 0.000000
vt 0.740593 0.619335 0.000000
vt 0.281806 0.594340 0.000000
vt 0.280742 0.352967 0.000000
vt 0.472583 0.352967 0.000000
vt 0.473627 0.594340 0.000000
# 76 texture coords

o clay_block
g clay_block
usemtl wire_177148027
s 1
f 1/1/1 2/2/2 3/3/3 4/4/4 
f 5/5/5 6/6/6 7/7/7 8/8/8 
f 9/9/9 10/10/10 11/11/11 12/12/12 
f 13/13/13 14/14/14 15/15/15 16/16/16 
f 17/17/17 18/18/18 19/19/19 20/20/20 
f 21/21/21 22/22/22 23/23/23 24/24/24 
f 1/1/1 25/25/25 26/26/26 27/27/27 
f 2/2/2 28/28/28 29/29/29 30/30/30 
f 3/3/3 31/31/31 32/32/32 33/33/33 
f 4/4/4 34/34/34 35/35/35 36/36/36 
f 5/5/5 37/37/37 38/38/38 39/39/39 
f 6/6/6 40/40/40 41/41/41 42/42/42 
f 7/7/7 43/43/43 44/44/44 45/45/45 
f 8/8/8 46/46/46 47/47/47 48/48/48 
f 9/9/9 49/49/49 26/50/26 25/51/25 
f 10/10/10 36/52/36 35/53/35 50/54/50 
f 11/11/11 51/55/51 41/41/41 40/56/40 
f 12/12/12 39/57/39 38/58/38 52/59/52 
f 13/13/13 50/54/50 35/53/35 34/60/34 
f 14/14/14 33/61/33 32/62/32 53/63/53 
f 15/15/15 54/64/54 44/44/44 43/43/43 
f 16/16/16 42/42/42 41/41/41 51/55/51 
f 17/17/17 53/63/53 32/62/32 31/65/31 
f 18/18/18 30/66/30 29/67/29 55/68/55 
f 19/19/19 56/69/56 47/70/47 46/71/46 
f 20/20/20 45/72/45 44/44/44 54/64/54 
f 21/21/21 55/73/55 29/29/29 28/28/28 
f 22/22/22 27/27/27 26/26/26 49/74/49 
f 23/23/23 52/75/52 38/38/38 37/37/37 
f 24/24/24 48/48/48 47/47/47 56/76/56 
f 2/2/2 1/1/1 27/27/27 28/28/28 
f 3/3/3 2/2/2 30/30/30 31/31/31 
f 4/4/4 3/3/3 33/33/33 34/34/34 
f 1/1/1 4/4/4 36/36/36 25/25/25 
f 6/6/6 5/5/5 39/39/39 40/40/40 
f 7/7/7 6/6/6 42/42/42 43/43/43 
f 8/8/8 7/7/7 45/45/45 46/46/46 
f 5/5/5 8/8/8 48/48/48 37/37/37 
f 10/10/10 9/9/9 25/51/25 36/52/36 
f 11/11/11 10/10/10 50/54/50 51/55/51 
f 12/12/12 11/11/11 40/56/40 39/57/39 
f 9/9/9 12/12/12 52/59/52 49/49/49 
f 14/14/14 13/13/13 34/60/34 33/61/33 
f 15/15/15 14/14/14 53/63/53 54/64/54 
f 16/16/16 15/15/15 43/43/43 42/42/42 
f 13/13/13 16/16/16 51/55/51 50/54/50 
f 18/18/18 17/17/17 31/65/31 30/66/30 
f 19/19/19 18/18/18 55/68/55 56/69/56 
f 20/20/20 19/19/19 46/71/46 45/72/45 
f 17/17/17 20/20/20 54/64/54 53/63/53 
f 22/22/22 21/21/21 28/28/28 27/27/27 
f 23/23/23 22/22/22 49/74/49 52/75/52 
f 24/24/24 23/23/23 37/37/37 48/48/48 
f 21/21/21 24/24/24 56/76/56 55/73/55 
# 54 polygons

