# 3ds Max Wavefront OBJ Exporter v0.99 - (c)2007 guruware
# File Created: 25.08.2022 23:38:27

mtllib mod_clayBlock_01_1space.mtl

#
# object clay_block_001
#

v  -4.000034 -4.000000 -4.985910
v  -4.000034 4.000000 -4.985907
v  4.000016 4.000000 -4.985905
v  4.000016 -4.000000 -4.985909
v  -4.000034 -4.000000 4.985909
v  4.000016 -4.000000 4.985910
v  4.000016 4.000000 4.985912
v  -4.000034 4.000000 4.985912
v  -4.000033 -4.999999 -4.000070
v  4.000017 -4.999999 -4.000069
v  4.000016 -5.000000 4.000051
v  -4.000034 -5.000000 4.000050
v  5.000000 -3.999998 -4.000070
v  5.000000 4.000000 -4.000069
v  5.000000 3.999998 4.000051
v  5.000000 -4.000000 4.000050
v  4.000017 5.000000 -4.000069
v  -4.000033 5.000000 -4.000070
v  -4.000034 4.999998 4.000050
v  4.000016 4.999998 4.000051
v  -5.000000 4.000000 -4.000069
v  -5.000000 -3.999998 -4.000070
v  -5.000000 -4.000000 4.000050
v  -5.000000 3.999998 4.000051
v  -3.999929 -4.656700 -4.656699
v  -4.462600 -4.462600 -4.462600
v  -4.646699 -3.999999 -4.646701
v  -4.646699 3.999999 -4.646698
v  -4.462600 4.462600 -4.462600
v  -3.999929 4.656699 -4.656700
v  3.999964 4.656699 -4.656701
v  4.462600 4.462599 -4.462600
v  4.646700 3.999999 -4.646698
v  4.646700 -3.999999 -4.646701
v  4.462600 -4.462600 -4.462599
v  3.999964 -4.656700 -4.656699
v  -4.646699 -3.999999 4.646698
v  -4.462600 -4.462599 4.462600
v  -3.999930 -4.656699 4.656701
v  3.999964 -4.656699 4.656700
v  4.462599 -4.462600 4.462600
v  4.646700 -3.999999 4.646699
v  4.646700 3.999999 4.646701
v  4.462600 4.462600 4.462599
v  3.999964 4.656701 4.656700
v  -3.999930 4.656701 4.656700
v  -4.462599 4.462600 4.462599
v  -4.646699 3.999999 4.646701
v  -4.628999 -4.628999 -3.999862
v  4.628999 -4.628999 -3.999862
v  4.628999 -4.629001 3.999899
v  -4.628999 -4.629001 3.999899
v  4.628999 4.629001 -3.999862
v  4.628999 4.628998 3.999899
v  -4.628999 4.629001 -3.999862
v  -4.628999 4.628998 3.999899
# 56 vertices

vn -0.226986 -0.218092 -0.949165
vn -0.226986 0.218091 -0.949165
vn 0.226978 0.218081 -0.949169
vn 0.226991 -0.218068 -0.949169
vn -0.226987 -0.218092 0.949164
vn 0.226980 -0.218084 0.949168
vn 0.226965 0.218097 0.949168
vn -0.226999 0.218078 0.949164
vn -0.248766 -0.942282 -0.224099
vn 0.248759 -0.942286 -0.224089
vn 0.248766 -0.942289 0.224071
vn -0.248787 -0.942284 0.224065
vn 0.940490 -0.248086 -0.232232
vn 0.940491 0.248070 -0.232247
vn 0.940494 0.248063 0.232242
vn 0.940494 -0.248091 0.232211
vn 0.248759 0.942286 -0.224090
vn -0.248765 0.942282 -0.224099
vn -0.248757 0.942286 0.224091
vn 0.248750 0.942290 0.224082
vn -0.940491 0.248070 -0.232247
vn -0.940491 -0.248070 -0.232246
vn -0.940495 -0.248060 0.232240
vn -0.940495 0.248060 0.232239
vn -0.252204 -0.678619 -0.689833
vn -0.600334 -0.582174 -0.548337
vn -0.680327 -0.242736 -0.691545
vn -0.680327 0.242735 -0.691546
vn -0.600334 0.582171 -0.548339
vn -0.252204 0.678617 -0.689835
vn 0.252224 0.678613 -0.689832
vn 0.600351 0.582162 -0.548330
vn 0.680322 0.242735 -0.691550
vn 0.680322 -0.242737 -0.691549
vn 0.600350 -0.582165 -0.548327
vn 0.252209 -0.678604 -0.689846
vn -0.680331 -0.242735 0.691541
vn -0.600326 -0.582163 0.548356
vn -0.252190 -0.678638 0.689819
vn 0.252223 -0.678619 0.689826
vn 0.600342 -0.582155 0.548347
vn 0.680343 -0.242721 0.691534
vn 0.680303 0.242737 0.691569
vn 0.600343 0.582157 0.548344
vn 0.252223 0.678621 0.689824
vn -0.252190 0.678613 0.689844
vn -0.600326 0.582166 0.548353
vn -0.680331 0.242737 0.691540
vn -0.688978 -0.688962 -0.225034
vn 0.688961 -0.688975 -0.225047
vn 0.688966 -0.688959 0.225080
vn -0.688983 -0.688946 0.225067
vn 0.688973 0.688966 -0.225035
vn 0.688958 0.688972 0.225066
vn -0.688978 0.688962 -0.225035
vn -0.688975 0.688959 0.225054
# 56 vertex normals

vt 0.230917 0.377697 0.000000
vt 0.231764 0.569609 0.000000
vt 0.040846 0.569609 0.000000
vt 0.039990 0.377697 0.000000
vt 0.522749 0.377697 0.000000
vt 0.714640 0.377697 0.000000
vt 0.715448 0.569609 0.000000
vt 0.523577 0.569609 0.000000
vt 0.956202 0.136389 0.000000
vt 0.955824 0.327973 0.000000
vt 0.764570 0.327973 0.000000
vt 0.764618 0.136389 0.000000
vt 0.955879 0.377697 0.000000
vt 0.956689 0.569609 0.000000
vt 0.765433 0.569609 0.000000
vt 0.764625 0.377697 0.000000
vt 0.956800 0.619335 0.000000
vt 0.957184 0.810924 0.000000
vt 0.765594 0.810924 0.000000
vt 0.765544 0.619335 0.000000
vt 0.281699 0.569609 0.000000
vt 0.280851 0.377697 0.000000
vt 0.472693 0.377697 0.000000
vt 0.473520 0.569609 0.000000
vt 0.230806 0.352967 0.000000
vt 0.255715 0.352967 0.000000
vt 0.255824 0.377697 0.000000
vt 0.256671 0.569609 0.000000
vt 0.256781 0.594340 0.000000
vt 0.231873 0.594340 0.000000
vt 0.040955 0.594340 0.000000
vt 0.016048 0.594340 0.000000
vt 0.015937 0.569609 0.000000
vt 0.015081 0.377697 0.000000
vt 0.014971 0.352967 0.000000
vt 0.039879 0.352967 0.000000
vt 0.497718 0.377697 0.000000
vt 0.497611 0.352967 0.000000
vt 0.522645 0.352967 0.000000
vt 0.714535 0.352967 0.000000
vt 0.739569 0.352967 0.000000
vt 0.739674 0.377697 0.000000
vt 0.740482 0.569609 0.000000
vt 0.740586 0.594340 0.000000
vt 0.715555 0.594340 0.000000
vt 0.523683 0.594340 0.000000
vt 0.498652 0.594340 0.000000
vt 0.498545 0.569609 0.000000
vt 0.956209 0.111395 0.000000
vt 0.981203 0.111395 0.000000
vt 0.981153 0.136389 0.000000
vt 0.980775 0.327973 0.000000
vt 0.980725 0.352967 0.000000
vt 0.955774 0.352967 0.000000
vt 0.764520 0.352967 0.000000
vt 0.739576 0.327973 0.000000
vt 0.739624 0.136389 0.000000
vt 0.739631 0.111395 0.000000
vt 0.764625 0.111395 0.000000
vt 0.980830 0.377697 0.000000
vt 0.981640 0.569609 0.000000
vt 0.981744 0.594340 0.000000
vt 0.956793 0.594340 0.000000
vt 0.765537 0.594340 0.000000
vt 0.981795 0.619335 0.000000
vt 0.982179 0.810924 0.000000
vt 0.982229 0.835919 0.000000
vt 0.957234 0.835919 0.000000
vt 0.765644 0.835919 0.000000
vt 0.740649 0.835919 0.000000
vt 0.740643 0.810924 0.000000
vt 0.740593 0.619335 0.000000
vt 0.281806 0.594340 0.000000
vt 0.280742 0.352967 0.000000
vt 0.472583 0.352967 0.000000
vt 0.473627 0.594340 0.000000
# 76 texture coords

o clay_block_001
g clay_block_001
usemtl wire_177148027
s 1
f 1/1/1 2/2/2 3/3/3 4/4/4 
f 5/5/5 6/6/6 7/7/7 8/8/8 
f 9/9/9 10/10/10 11/11/11 12/12/12 
f 13/13/13 14/14/14 15/15/15 16/16/16 
f 17/17/17 18/18/18 19/19/19 20/20/20 
f 21/21/21 22/22/22 23/23/23 24/24/24 
f 1/1/1 25/25/25 26/26/26 27/27/27 
f 2/2/2 28/28/28 29/29/29 30/30/30 
f 3/3/3 31/31/31 32/32/32 33/33/33 
f 4/4/4 34/34/34 35/35/35 36/36/36 
f 5/5/5 37/37/37 38/38/38 39/39/39 
f 6/6/6 40/40/40 41/41/41 42/42/42 
f 7/7/7 43/43/43 44/44/44 45/45/45 
f 8/8/8 46/46/46 47/47/47 48/48/48 
f 9/9/9 49/49/49 26/50/26 25/51/25 
f 10/10/10 36/52/36 35/53/35 50/54/50 
f 11/11/11 51/55/51 41/41/41 40/56/40 
f 12/12/12 39/57/39 38/58/38 52/59/52 
f 13/13/13 50/54/50 35/53/35 34/60/34 
f 14/14/14 33/61/33 32/62/32 53/63/53 
f 15/15/15 54/64/54 44/44/44 43/43/43 
f 16/16/16 42/42/42 41/41/41 51/55/51 
f 17/17/17 53/63/53 32/62/32 31/65/31 
f 18/18/18 30/66/30 29/67/29 55/68/55 
f 19/19/19 56/69/56 47/70/47 46/71/46 
f 20/20/20 45/72/45 44/44/44 54/64/54 
f 21/21/21 55/73/55 29/29/29 28/28/28 
f 22/22/22 27/27/27 26/26/26 49/74/49 
f 23/23/23 52/75/52 38/38/38 37/37/37 
f 24/24/24 48/48/48 47/47/47 56/76/56 
f 2/2/2 1/1/1 27/27/27 28/28/28 
f 3/3/3 2/2/2 30/30/30 31/31/31 
f 4/4/4 3/3/3 33/33/33 34/34/34 
f 1/1/1 4/4/4 36/36/36 25/25/25 
f 6/6/6 5/5/5 39/39/39 40/40/40 
f 7/7/7 6/6/6 42/42/42 43/43/43 
f 8/8/8 7/7/7 45/45/45 46/46/46 
f 5/5/5 8/8/8 48/48/48 37/37/37 
f 10/10/10 9/9/9 25/51/25 36/52/36 
f 11/11/11 10/10/10 50/54/50 51/55/51 
f 12/12/12 11/11/11 40/56/40 39/57/39 
f 9/9/9 12/12/12 52/59/52 49/49/49 
f 14/14/14 13/13/13 34/60/34 33/61/33 
f 15/15/15 14/14/14 53/63/53 54/64/54 
f 16/16/16 15/15/15 43/43/43 42/42/42 
f 13/13/13 16/16/16 51/55/51 50/54/50 
f 18/18/18 17/17/17 31/65/31 30/66/30 
f 19/19/19 18/18/18 55/68/55 56/69/56 
f 20/20/20 19/19/19 46/71/46 45/72/45 
f 17/17/17 20/20/20 54/64/54 53/63/53 
f 22/22/22 21/21/21 28/28/28 27/27/27 
f 23/23/23 22/22/22 49/74/49 52/75/52 
f 24/24/24 23/23/23 37/37/37 48/48/48 
f 21/21/21 24/24/24 56/76/56 55/73/55 
# 54 polygons

