# 3ds Max Wavefront OBJ Exporter v0.99 - (c)2007 guruware
# File Created: 25.08.2022 23:39:29

mtllib mod_clayBlock_01_3space.mtl

#
# object clay_block_003
#

v  25.000000 -3.999998 -4.000070
v  25.000000 4.000000 -4.000069
v  25.000000 3.999998 4.000051
v  25.000000 -4.000000 4.000050
v  24.000015 4.000000 -4.985905
v  23.999964 4.656699 -4.656701
v  24.462599 4.462599 -4.462600
v  24.646700 3.999999 -4.646698
v  24.000015 -4.000000 -4.985909
v  24.646700 -3.999999 -4.646701
v  24.462599 -4.462600 -4.462599
v  23.999964 -4.656700 -4.656699
v  24.000015 -4.000000 4.985910
v  23.999964 -4.656699 4.656700
v  24.462599 -4.462600 4.462600
v  24.646700 -3.999999 4.646699
v  24.000015 4.000000 4.985912
v  24.646700 3.999999 4.646701
v  24.462599 4.462600 4.462599
v  23.999964 4.656701 4.656700
v  24.000017 -4.999999 -4.000069
v  24.629000 -4.628999 -3.999862
v  24.000015 -5.000000 4.000051
v  24.629000 -4.629001 3.999899
v  24.629000 4.629001 -3.999862
v  24.629000 4.628998 3.999899
v  24.000017 5.000000 -4.000069
v  24.000015 4.999998 4.000051
v  -4.000032 -3.999999 -4.985909
v  -4.000032 3.999999 -4.985906
v  -4.000032 -4.000000 4.985908
v  -4.000032 3.999999 4.985912
v  -4.000032 -4.999998 -4.000069
v  -4.000032 -5.000000 4.000050
v  -4.000032 5.000000 -4.000069
v  -4.000032 4.999998 4.000050
v  -4.999999 4.000000 -4.000068
v  -4.999999 -3.999998 -4.000069
v  -4.999999 -4.000000 4.000050
v  -4.999999 3.999998 4.000051
v  -3.999927 -4.656700 -4.656699
v  -4.462596 -4.462599 -4.462599
v  -4.646698 -3.999999 -4.646700
v  -4.646698 3.999999 -4.646697
v  -4.462596 4.462599 -4.462600
v  -3.999927 4.656699 -4.656700
v  -4.646698 -3.999999 4.646698
v  -4.462599 -4.462598 4.462600
v  -3.999927 -4.656699 4.656700
v  -3.999927 4.656700 4.656699
v  -4.462596 4.462600 4.462598
v  -4.646698 3.999999 4.646701
v  -4.628998 -4.628999 -3.999862
v  -4.628998 -4.629000 3.999899
v  -4.628998 4.629000 -3.999862
v  -4.628998 4.628997 3.999899
# 56 vertices

vn 0.940490 -0.248086 -0.232232
vn 0.940491 0.248070 -0.232247
vn 0.940494 0.248063 0.232242
vn 0.940494 -0.248091 0.232211
vn 0.226978 0.218081 -0.949169
vn 0.252224 0.678613 -0.689832
vn 0.600351 0.582162 -0.548330
vn 0.680322 0.242735 -0.691550
vn 0.226991 -0.218068 -0.949169
vn 0.680322 -0.242737 -0.691549
vn 0.600350 -0.582165 -0.548327
vn 0.252209 -0.678604 -0.689846
vn 0.226980 -0.218084 0.949168
vn 0.252223 -0.678619 0.689826
vn 0.600342 -0.582155 0.548347
vn 0.680343 -0.242721 0.691534
vn 0.226965 0.218097 0.949168
vn 0.680303 0.242737 0.691569
vn 0.600343 0.582157 0.548344
vn 0.252223 0.678621 0.689824
vn 0.248759 -0.942286 -0.224089
vn 0.688961 -0.688975 -0.225047
vn 0.248766 -0.942289 0.224071
vn 0.688966 -0.688959 0.225080
vn 0.688973 0.688966 -0.225035
vn 0.688958 0.688972 0.225066
vn 0.248759 0.942286 -0.224090
vn 0.248750 0.942290 0.224082
vn -0.226985 -0.218092 -0.949165
vn -0.226986 0.218091 -0.949165
vn -0.226986 -0.218092 0.949164
vn -0.226986 0.218093 0.949164
vn -0.248759 -0.942283 -0.224104
vn -0.248770 -0.942286 0.224077
vn -0.248759 0.942282 -0.224105
vn -0.248773 0.942285 0.224079
vn -0.940491 0.248070 -0.232247
vn -0.940491 -0.248070 -0.232246
vn -0.940494 -0.248091 0.232211
vn -0.940495 0.248046 0.232256
vn -0.252205 -0.678619 -0.689833
vn -0.600332 -0.582174 -0.548338
vn -0.680326 -0.242737 -0.691545
vn -0.680326 0.242736 -0.691546
vn -0.600333 0.582172 -0.548340
vn -0.252204 0.678617 -0.689835
vn -0.680346 -0.242721 0.691532
vn -0.600326 -0.582163 0.548357
vn -0.252189 -0.678638 0.689820
vn -0.252205 0.678624 0.689828
vn -0.600325 0.582167 0.548354
vn -0.680316 0.242752 0.691550
vn -0.688974 -0.688967 -0.225030
vn -0.688962 -0.688968 0.225067
vn -0.688974 0.688967 -0.225031
vn -0.688983 0.688946 0.225067
# 56 vertex normals

vt 0.845241 0.956488 0.000000
vt 0.695239 0.956709 0.000000
vt 0.694875 0.807027 0.000000
vt 0.845119 0.806729 0.000000
vt 0.474934 0.764699 0.000000
vt 0.492625 0.764524 0.000000
vt 0.492842 0.788208 0.000000
vt 0.474727 0.791058 0.000000
vt 0.325149 0.765584 0.000000
vt 0.325674 0.791882 0.000000
vt 0.307529 0.789297 0.000000
vt 0.307457 0.765617 0.000000
vt 0.845247 0.762412 0.000000
vt 0.862382 0.758554 0.000000
vt 0.859583 0.789008 0.000000
vt 0.845197 0.789158 0.000000
vt 0.695621 0.763072 0.000000
vt 0.694957 0.789527 0.000000
vt 0.678723 0.788904 0.000000
vt 0.678011 0.763393 0.000000
vt 0.289660 0.765778 0.000000
vt 0.289542 0.792097 0.000000
vt 0.139885 0.766764 0.000000
vt 0.140965 0.793110 0.000000
vt 0.125902 0.790247 0.000000
vt 0.122572 0.762892 0.000000
vt 0.862277 0.955557 0.000000
vt 0.859523 0.970569 0.000000
vt 0.844378 0.973654 0.000000
vt 0.696150 0.973848 0.000000
vt 0.680981 0.970822 0.000000
vt 0.678155 0.955830 0.000000
vt 0.677742 0.807348 0.000000
vt 0.862171 0.807039 0.000000
vt 0.510424 0.764472 0.000000
vt 0.510892 0.790751 0.000000
vt 0.660223 0.763592 0.000000
vt 0.660127 0.790062 0.000000
vt 0.321960 0.242957 0.000000
vt 0.471752 0.242015 0.000000
vt 0.841984 0.239760 0.000000
vt 0.692425 0.240952 0.000000
vt 0.286470 0.243195 0.000000
vt 0.136664 0.244048 0.000000
vt 0.507242 0.241811 0.000000
vt 0.657032 0.240862 0.000000
vt 0.689722 0.047256 0.000000
vt 0.839713 0.045779 0.000000
vt 0.841323 0.195473 0.000000
vt 0.691144 0.196988 0.000000
vt 0.304269 0.243140 0.000000
vt 0.304052 0.219458 0.000000
vt 0.322163 0.216599 0.000000
vt 0.471223 0.215715 0.000000
vt 0.489376 0.218288 0.000000
vt 0.489444 0.241976 0.000000
vt 0.841604 0.213047 0.000000
vt 0.855982 0.213011 0.000000
vt 0.859170 0.243406 0.000000
vt 0.674819 0.240846 0.000000
vt 0.675210 0.215326 0.000000
vt 0.691438 0.214481 0.000000
vt 0.286029 0.216921 0.000000
vt 0.119401 0.248132 0.000000
vt 0.122394 0.220722 0.000000
vt 0.137421 0.217648 0.000000
vt 0.507393 0.215468 0.000000
vt 0.656605 0.214458 0.000000
vt 0.672692 0.048330 0.000000
vt 0.675322 0.033295 0.000000
vt 0.690440 0.030084 0.000000
vt 0.838658 0.028648 0.000000
vt 0.853852 0.031547 0.000000
vt 0.856799 0.046515 0.000000
vt 0.858329 0.194964 0.000000
vt 0.673969 0.196880 0.000000
# 76 texture coords

o clay_block_003
g clay_block_003
usemtl wire_177148027
s 1
f 1/1/1 2/2/2 3/3/3 4/4/4 
f 5/5/5 6/6/6 7/7/7 8/8/8 
f 9/9/9 10/10/10 11/11/11 12/12/12 
f 13/13/13 14/14/14 15/15/15 16/16/16 
f 17/17/17 18/18/18 19/19/19 20/20/20 
f 21/21/21 12/12/12 11/11/11 22/22/22 
f 23/23/23 24/24/24 15/25/15 14/26/14 
f 1/1/1 22/27/22 11/28/11 10/29/10 
f 2/2/2 8/30/8 7/31/7 25/32/25 
f 3/3/3 26/33/26 19/19/19 18/18/18 
f 4/4/4 16/16/16 15/15/15 24/34/24 
f 27/35/27 25/36/25 7/7/7 6/6/6 
f 28/37/28 20/20/20 19/19/19 26/38/26 
f 9/9/9 5/5/5 8/8/8 10/10/10 
f 17/17/17 13/13/13 16/16/16 18/18/18 
f 23/23/23 21/21/21 22/22/22 24/24/24 
f 2/2/2 1/1/1 10/29/10 8/30/8 
f 3/3/3 2/2/2 25/32/25 26/33/26 
f 4/4/4 3/3/3 18/18/18 16/16/16 
f 1/1/1 4/4/4 24/34/24 22/27/22 
f 27/35/27 28/37/28 26/38/26 25/36/25 
f 29/39/29 30/40/30 5/5/5 9/9/9 
f 31/41/31 13/13/13 17/17/17 32/42/32 
f 33/43/33 21/21/21 23/23/23 34/44/34 
f 27/35/27 35/45/35 36/46/36 28/37/28 
f 37/47/37 38/48/38 39/49/39 40/50/40 
f 29/39/29 41/51/41 42/52/42 43/53/43 
f 30/40/30 44/54/44 45/55/45 46/56/46 
f 31/41/31 47/57/47 48/58/48 49/59/49 
f 32/42/32 50/60/50 51/61/51 52/62/52 
f 33/43/33 53/63/53 42/52/42 41/51/41 
f 34/44/34 49/64/49 48/65/48 54/66/54 
f 35/45/35 46/56/46 45/55/45 55/67/55 
f 36/46/36 56/68/56 51/61/51 50/60/50 
f 37/47/37 55/69/55 45/70/45 44/71/44 
f 38/48/38 43/72/43 42/73/42 53/74/53 
f 39/49/39 54/75/54 48/58/48 47/57/47 
f 40/50/40 52/62/52 51/61/51 56/76/56 
f 30/40/30 29/39/29 43/53/43 44/54/44 
f 5/5/5 30/40/30 46/56/46 6/6/6 
f 29/39/29 9/9/9 12/12/12 41/51/41 
f 13/13/13 31/41/31 49/59/49 14/14/14 
f 32/42/32 17/17/17 20/20/20 50/60/50 
f 31/41/31 32/42/32 52/62/52 47/57/47 
f 21/21/21 33/43/33 41/51/41 12/12/12 
f 34/44/34 23/23/23 14/26/14 49/64/49 
f 33/43/33 34/44/34 54/66/54 53/63/53 
f 35/45/35 27/35/27 6/6/6 46/56/46 
f 36/46/36 35/45/35 55/67/55 56/68/56 
f 28/37/28 36/46/36 50/60/50 20/20/20 
f 38/48/38 37/47/37 44/71/44 43/72/43 
f 39/49/39 38/48/38 53/74/53 54/75/54 
f 40/50/40 39/49/39 47/57/47 52/62/52 
f 37/47/37 40/50/40 56/76/56 55/69/55 
# 54 polygons

